inDegrees=no
num_controls=7
num_derivatives=13
num_iterations=116
num_multipliers=7
num_parameters=0
num_slacks=7
num_states=26
objective=4.934475
objective_accelerations=0.543119
objective_balance=0.018177
objective_effort=0.151208
objective_height=4.195519
objective_ligament=0.026452
solver_duration=1308.690114
status=Solve_Succeeded
success=true
DataType=double
version=3
OpenSimVersion=4.4-2022-07-23-0e9fedc
endheader
time	/jointset/ground_pelvis/pelvis_tilt/value	/jointset/ground_pelvis/pelvis_tx/value	/jointset/ground_pelvis/pelvis_ty/value	/jointset/hip_l/hip_flexion_l/value	/jointset/hip_l/hip_adduction_l/value	/jointset/hip_l/hip_rotation_l/value	/jointset/back/lumbar_extension/value	/jointset/patellofemoral_l/patellar_flexion_l/value	/jointset/knee_l/knee_flexion_l/value	/jointset/knee_l/knee_adduction_l/value	/jointset/knee_l/knee_rotation_l/value	/jointset/ankle_l/ankle_angle_l/value	/jointset/subtalar_l/subtalar_angle_l/value	/jointset/ground_pelvis/pelvis_tilt/speed	/jointset/ground_pelvis/pelvis_tx/speed	/jointset/ground_pelvis/pelvis_ty/speed	/jointset/hip_l/hip_flexion_l/speed	/jointset/hip_l/hip_adduction_l/speed	/jointset/hip_l/hip_rotation_l/speed	/jointset/back/lumbar_extension/speed	/jointset/patellofemoral_l/patellar_flexion_l/speed	/jointset/knee_l/knee_flexion_l/speed	/jointset/knee_l/knee_adduction_l/speed	/jointset/knee_l/knee_rotation_l/speed	/jointset/ankle_l/ankle_angle_l/speed	/jointset/subtalar_l/subtalar_angle_l/speed	/forceset/tau_hip_flexion_l	/forceset/tau_hip_adduction_l	/forceset/tau_hip_rotation_l	/forceset/tau_knee_flexion_l	/forceset/tau_ankle_angle_l	/forceset/tau_subtalar_angle_l	/forceset/tau_lumbar_extension	lambda_cid13_p0	lambda_cid13_p1	lambda_cid13_p2	lambda_cid13_p3	lambda_cid13_p4	lambda_cid13_p5	lambda_cid14_p0	/jointset/ground_pelvis/pelvis_tilt/accel	/jointset/ground_pelvis/pelvis_tx/accel	/jointset/ground_pelvis/pelvis_ty/accel	/jointset/hip_l/hip_flexion_l/accel	/jointset/hip_l/hip_adduction_l/accel	/jointset/hip_l/hip_rotation_l/accel	/jointset/back/lumbar_extension/accel	/jointset/patellofemoral_l/patellar_flexion_l/accel	/jointset/knee_l/knee_flexion_l/accel	/jointset/knee_l/knee_adduction_l/accel	/jointset/knee_l/knee_rotation_l/accel	/jointset/ankle_l/ankle_angle_l/accel	/jointset/subtalar_l/subtalar_angle_l/accel	gamma_cid13_p0	gamma_cid13_p1	gamma_cid13_p2	gamma_cid13_p3	gamma_cid13_p4	gamma_cid13_p5	gamma_cid14_p0
0	0.04720409652434336	0.1084319150783073	0.902842172223068	0.1266917050730164	-0.3702480607038441	-0.2299187396675109	-0.2144974744115991	0.2051547269257339	0.2051547269256735	-0.1745321487762503	-0.1649372075981061	0.09024399430361882	0.07886273737414939	0	0	0	0	0	0	0	0	0	0	0	0	0	0.119386990884559	-0.09210890399903358	-0.01324059321736309	-0.2683301115375609	0.2144960191449224	-0.06714280209988928	-0.04876168702640386	39.44426714182481	23.66071980770615	-5.660315660311977	-32.52592749588423	-440.7268412521042	-72.43561164693884	-26.41280196661973	-2.75359953047644	-0.5640107100839659	-0.7538040662959592	9.33359594349241	-0.3937799010364596	3.113570060328708	-3.334380126437906	9.338168363642259	9.338168363641865	1.528738363856115	-0.634401443903286	3.577441930499218	0.608812326393469	-1.795381641235806e-08	4.247440507985239e-07	-1.332167023137615e-08	3.887359019059032e-08	1.497331826773443e-09	1.234274554653469e-07	3.926088372975743e-08
0.01	0.04707262662138246	0.1084041676863529	0.9028055928228992	0.1271447250772357	-0.3702667006397687	-0.229756815943522	-0.2146673518439503	0.2056095322945778	0.2056095322945366	-0.1744571479221508	-0.1649580488490982	0.09041898491589727	0.07889307123235136	-0.02621356649332829	-0.005527894906856711	-0.007291064064173243	0.09023083761569882	-0.003686639587525862	0.03223430777114306	-0.03373067366680196	0.09052194350786033	0.09052194350785381	0.01496116050802534	-0.004125572759347237	0.03482164995350899	0.006061201511101153	0.1166969056175029	-0.09778993444386823	-0.01253653477314224	-0.2646438586616935	0.2071159660953674	-0.059818811795746	-0.04664214366695178	37.4520125358747	20.59112802282275	-4.899527818891912	-31.3224384804063	-441.4703292967753	-78.54833193909619	-26.41271132542189	-2.543177077688981	-0.5439335868038189	-0.7130348815670584	8.811848576909702	-0.3499661791863281	3.255811569694463	-3.355689063362047	8.843329955562851	8.843329955562586	1.474023861085305	-0.2952461348736226	3.408064802245994	0.603873715954976	-3.617246976201615e-08	6.492643186670239e-07	-9.985766098022862e-09	7.215087045286243e-08	-1.481502362964954e-07	1.645065066965217e-07	6.52604111507369e-08
0.02	0.04668143267962525	0.1083217904041632	0.9026968473210626	0.1284888576388207	-0.3703209790098644	-0.2292770590549612	-0.2151671916283023	0.2069563816206287	0.2069563816206225	-0.174233691668961	-0.1650188680164348	0.09093689968259949	0.07898383703616201	-0.05194480774333946	-0.01092597804705036	-0.01443322033357428	0.1782225114834667	-0.007127686838074812	0.06356663290974084	-0.06599247039584213	0.178408791463884	0.1784087914638818	0.0296910796884058	-0.007995583235633435	0.06858483088575328	0.01208638912164571	0.1140068203501329	-0.1034709648886101	-0.01183247632823868	-0.2609576057864803	0.1997359130455981	-0.05249482149157254	-0.04452260030747916	35.50172498869809	17.52455119941477	-4.15105925155018	-30.19782887327903	-441.4952067871396	-84.51528636586171	-26.41220508609459	-2.657134481811467	-0.5380483567524743	-0.72402250734153	8.885763193906067	-0.3446614336418871	2.933173533819795	-3.040604738884564	8.811149253275216	8.811149253276996	1.482490098325554	-0.5832889872915281	3.365748126244867	0.6016095462808502	-5.439112311167424e-08	8.737845865355238e-07	-6.649861964669569e-09	1.054281507151346e-07	-2.977978044197643e-07	2.055855579276965e-07	9.125993857171637e-08
0.03	0.04603535431582002	0.1081857906787872	0.9025171996380698	0.1307024420178523	-0.3704085333543422	-0.2284893989247696	-0.2159821422582348	0.2091697236965056	0.2091697236969614	-0.1738642704155085	-0.1651182099202347	0.09178703103985668	0.07913456317617427	-0.07715546616446613	-0.0162801523504297	-0.02148835934510181	0.2641311249543306	-0.01035493882294568	0.09384409468891311	-0.09677087325783935	0.2638412342797645	0.2638412342797806	0.04410894846354414	-0.01180704581219162	0.1012367050602191	0.01803167867678163	0.1100659816481421	-0.09861584351082911	-0.0108079929193559	-0.2554727442775361	0.1919840128549124	-0.05375857467532645	-0.04163509048749894	32.91736981435341	18.32695418416499	-4.051738384173615	-28.22318355412151	-441.5870816086046	-82.09167428152973	-26.4109813713408	-2.435722244779134	-0.5350085484482812	-0.6951262241511404	8.388918218256466	-0.3076482409505131	3.056866922695771	-3.062440707243818	8.346515019265018	8.346515019266461	1.408949976290531	-0.2702342412232518	3.184216104845889	0.5867784688976396	-6.653153210944961e-08	9.932282178146869e-07	1.495395051998047e-08	1.244141703909983e-07	-4.080904218009387e-07	2.042505518243886e-07	1.042492783423569e-07
0.04	0.04514063122323342	0.1079960678941118	0.902267227239736	0.1337642140903204	-0.3705275384505736	-0.2274025972920178	-0.2170980734462898	0.2122248348456129	0.212224834845611	-0.1733531675315604	-0.1652536983188514	0.09295754294726452	0.0793439001734917	-0.101673753485677	-0.02167058990693011	-0.02849816340177079	0.3478600502085494	-0.01341783720928992	0.1233949333772562	-0.1261885820151189	0.3467626060364209	0.3467626060364082	0.0580274056059123	-0.01522488232419592	0.1326609409065786	0.02380856058259368	0.1061251429433893	-0.09376072213365372	-0.009783509513824869	-0.2499878827703622	0.1842321126632159	-0.05502232785998557	-0.03874758066865931	30.37156939315692	19.13492145864262	-3.967372557728478	-26.31803462314457	-441.0121029565169	-79.52498718195262	-26.40841387498332	-2.518660261826717	-0.54530100737778	-0.7149555163697896	8.44982555057708	-0.3117907139369689	2.787848915653961	-2.768465917940115	8.308935041430665	8.308935041423068	1.38260777177087	-0.5045637743811299	3.120220460622331	0.5679280164153152	-7.854661648141298e-08	1.110505320504379e-06	3.693442090878097e-08	1.43105524900132e-07	-5.175715968987711e-07	2.020410290750088e-07	1.169703668212379e-07
0.05	0.04400373288509609	0.1077522874483981	0.9019471980574829	0.1376531218542383	-0.3706762654406501	-0.2260253844809771	-0.2185010297481473	0.2160972643892602	0.2160972643893635	-0.1727051712475241	-0.1654228909130698	0.09443635783330821	0.07961034755187654	-0.1255949457558108	-0.02708729063443415	-0.03551137145447453	0.4295582478002051	-0.01628542519251969	0.1519014625646613	-0.1541834562426009	0.4273031155414067	0.427303115541428	0.07149913380657694	-0.01855503214462436	0.1629008918942174	0.02947149629639095	0.1020651160528586	-0.09137549756913803	-0.008652036197560258	-0.2449652422142926	0.1761513118556982	-0.05382377690128353	-0.03579544603781328	27.84965744674222	18.86053677270612	-3.700408036938961	-24.51369968581302	-440.6951756479657	-79.23745027279267	-26.40381620432659	-2.312201441668649	-0.5400945458866805	-0.6951626094582173	7.975321330884522	-0.2680913253278093	2.860160742191206	-2.782114855700651	7.863557338418424	7.863557338428907	1.318741655014777	-0.2384699359322201	2.945736174084188	0.5638852850342999	-8.148041756438596e-08	1.149790485153933e-06	2.738310878374905e-08	1.521274051269131e-07	-5.833382998638396e-07	2.152598946150964e-07	1.250624503699371e-07
